<svg width="33" height="28" viewBox="0 0 33 28" fill="none" xmlns="http://www.w3.org/2000/svg">
<path d="M32.8735 0V0C32.8735 1.92327 31.3144 3.48239 29.3911 3.48239L9.0308 3.48239V3.48239C9.0308 1.55912 10.5899 -9.74048e-07 12.5132 -8.89979e-07L32.8735 0Z" fill="#0F172A"/>
<path d="M9.03076 27.2787V27.2787C10.954 27.2787 12.5131 25.7196 12.5131 23.7963L12.5131 13.3724L9.03076 13.3724L9.03076 27.2787Z" fill="#0F172A"/>
<path d="M12.5132 0V0C10.5899 1.68137e-07 9.0308 1.55912 9.0308 3.48239L9.0308 8.49702L12.5132 8.49702L12.5132 0Z" fill="#0F172A"/>
<path d="M29.8091 12.6759V12.6759C29.8091 10.7526 28.25 9.19352 26.3267 9.19352L5.80384 9.19352L5.80384 12.6759L29.8091 12.6759Z" fill="#0F172A"/>
<path d="M26.3267 9.19351V9.19351C28.2499 9.19351 29.809 10.7526 29.809 12.6759V14.4171C29.809 16.3404 28.2499 17.8995 26.3267 17.8995V17.8995V9.19351Z" fill="#0F172A"/>
<path d="M20.9873 9.19351V9.19351C22.9106 9.19351 24.4697 10.7526 24.4697 12.6759V14.4171C24.4697 16.3404 22.9106 17.8995 20.9873 17.8995V17.8995V9.19351Z" fill="#0F172A"/>
<path d="M15.6475 9.19351V9.19351C17.5707 9.19351 19.1298 10.7526 19.1298 12.6759V14.4171C19.1298 16.3404 17.5707 17.8995 15.6475 17.8995V17.8995L15.6475 9.19351Z" fill="#0F172A"/>
<path fill-rule="evenodd" clip-rule="evenodd" d="M4.06278 14.9975C6.3066 14.9975 8.12557 13.1785 8.12557 10.9347C8.12557 8.69089 6.3066 6.87192 4.06278 6.87192C1.81897 6.87192 0 8.69089 0 10.9347C0 13.1785 1.81897 14.9975 4.06278 14.9975ZM4.06282 12.6759C5.02445 12.6759 5.80401 11.8963 5.80401 10.9347C5.80401 9.97306 5.02445 9.1935 4.06282 9.1935C3.10118 9.1935 2.32162 9.97306 2.32162 10.9347C2.32162 11.8963 3.10118 12.6759 4.06282 12.6759Z" fill="#0F172A"/>
</svg>
